<?xml version="1.0" encoding="UTF-8"?>
<svg id="Calque_1" xmlns="http://www.w3.org/2000/svg" xmlns:xlink="http://www.w3.org/1999/xlink" version="1.1" viewBox="0 0 1122 1406">
  <!-- Generator: Adobe Illustrator 30.2.1, SVG Export Plug-In . SVG Version: 2.1.1 Build 1)  -->
  <defs>
    <style>
      .st0, .st1 {
        fill: none;
      }

      .st2 {
        fill: #b79858;
      }

      .st2, .st3, .st4, .st5, .st6, .st7 {
        fill-rule: evenodd;
      }

      .st3 {
        fill: #fff;
      }

      .st8 {
        fill: #fff6e0;
      }

      .st4 {
        fill: #fad38a;
      }

      .st9 {
        stroke-miterlimit: 10;
      }

      .st9, .st10, .st11 {
        fill: #2a5c73;
        stroke: #2a5c73;
      }

      .st5 {
        fill: #613725;
      }

      .st12 {
        fill: #6d2613;
      }

      .st1 {
        stroke: #d2d2d2;
        stroke-linecap: round;
        stroke-linejoin: round;
        stroke-width: 14.2px;
      }

      .st13 {
        clip-path: url(#clippath-1);
      }

      .st14 {
        clip-path: url(#clippath-3);
      }

      .st15 {
        clip-path: url(#clippath-2);
      }

      .st6, .st16 {
        fill: #f1c166;
      }

      .st10 {
        stroke-width: 7.7px;
      }

      .st11 {
        stroke-width: 5.7px;
      }

      .st17 {
        fill: #ce734a;
      }

      .st18 {
        display: none;
        fill: #f396c5;
      }

      .st19 {
        fill: #88b8ce;
      }

      .st20 {
        fill: #a13a1e;
      }

      .st7 {
        fill: #222323;
      }

      .st21 {
        fill: #d3a245;
      }

      .st22 {
        clip-path: url(#clippath);
      }

      .st23 {
        fill: #fefaf0;
      }
    </style>
    <clipPath id="clippath">
      <circle class="st0" cx="561" cy="729.2" r="561"/>
    </clipPath>
    <clipPath id="clippath-1">
      <rect class="st0" width="1122" height="1406"/>
    </clipPath>
    <clipPath id="clippath-2">
      <rect class="st0" y="81" width="1120" height="1338"/>
    </clipPath>
    <clipPath id="clippath-3">
      <rect class="st0" y="869.3" width="476.4" height="538.8"/>
    </clipPath>
  </defs>
  <g class="st22">
    <g class="st13">
      <g>
        <rect class="st8" width="1122" height="1406"/>
        <g class="st15">
          <g>
            <path class="st19" d="M1152.3,1458.6c13.9-96.4,40.6-191.9,60.8-287.1-5.8-19.2-18.9,38.4-20.3,43.8-19.2,76.8-31.7,156.6-45.3,234.6-6,.6-10.7-18.1-11.9-22.3-5.7-19.6-22.4-82.4-23-99.6-1.5-40.8,17.6-112.3,39-147.7,11-18.1,48.5-63.6,72-58.9,2.4.5,30.8,26.9,33.8,31.1,67.8,96.1-52.4,230.2-105.2,306h0Z"/>
            <path class="st19" d="M961.9,1247.3c3.9.6,8.4,1.7,12.2,2.7,108.1,26.7,114.3,118.6,153.8,198.4l-188.6-165.9,185.9,185.5c-18-.3-36-.6-53.9-.8-27.9-17.6-58.5-30.9-83.8-52.8-30.5-26.4-99.2-118.3-87-159.4,5.2-17.6,45.8-10.3,61.4-7.7h0Z"/>
            <path class="st19" d="M1066.6,1133.8c12-54.8,41.2-104.1,68.5-152.1-11.3.6-24.3,26.5-30,36.3-16.5,28.8-28.2,63.5-41.9,93.7-3.4.1-15.9-52.9-17.5-59.1,12.5-31.9,31.5-75.3,61.5-94.7,76-49.2,60.1,86.9,36.1,124.4-16.4,25.5-49.5,41-76.8,51.5h0Z"/>
            <path class="st10" d="M1011.5,890.3c11.8,53.9,21.2,108.8,34.3,162.3,1.5,6.1,14,59.2,17.5,59.1,13.7-30.2,25.4-65,41.9-93.7,5.7-9.9,18.7-35.7,30-36.3-27.3,48.1-56.5,97.3-68.5,152.1l46,194.3c.6,17.3,17.3,80,23,99.6,1.2,4.1,5.9,22.9,11.9,22.3,13.6-78,26.1-157.8,45.3-234.6,1.4-5.4,14.5-63,20.3-43.8-20.2,95.2-46.9,190.7-60.8,287.1-.5,3.4-.7,4.4-2.6,7.3-5.8,0-16,2.2-24.5,2.1l-185.9-185.5,188.7,165.9c1.6,3.2,2.4,12.2,9.7,8.7l-133.5-564.6c.4,0,4.2-1.6,7.4-2.4h0Z"/>
            <path class="st20" d="M1090.6,692.9c-27.4-25.6-52-75.8-83.1-18.4-7.5-7.1-25.9-13.3-34.3-3-2.9-5.2-33.5-31.2-39.9-32.5-13.8-2.7-67.2,19.1-70.4,32-4.6,19.1,18.5,34.5,19,42,.4,6.8-12.4,12.8-7.7,20.7-2.9,1.6-2.3,2.3-2.5,2.4-16.5,11.2-34,30.7-54.5,39.6-4,12.3,16,33.9,28.9,33.5-2.1,6.8,1.1,25.6,4.4,31.9-32.8-31-96.6-52.5-86.6-107.9,5.6-30.9,41.4-28.2,44.8-43.4,5-22.3-31-27.1-3.8-68.7,25.6-39.3,60.5-16.6,80.1-29.4,10.1-6.6,7.5-22.8,22.6-34,18.7-13.9,55.5-18.9,76.1-6.2,10.4,6.4,19.6,30.7,24,32.2,16.8,5.7,62.2-37.2,91.7,12.4,20.8,35,4.7,64.5-8.8,96.7h0Z"/>
            <path class="st17" d="M1011.5,890.3c-3.2.7-7,2.3-7.4,2.4-42.4,7.2-131.7-9.9-153.6-51.4-3.4-6.3-6.5-25.1-4.4-31.9.7-2.2,16.6-16,18.6-16.9,44.2-18.3,92.4,23.5,124.8,11.7,20.5-7.5,26.6-48.4,45-58.1,11.9-6.3,32.5-3,35.6-5.6,1.8-1.5,14.5-35.7,17.8-42.6,66.9,70.7,7,173.1-76.5,192.4h0Z"/>
            <path class="st12" d="M1090.6,692.9c-.7,1.8-1.7,3.1-2.6,4.9-3.3,6.9-16,41.2-17.8,42.6-3.2,2.5-23.7-.7-35.6,5.6-18.4,9.8-24.5,50.7-45,58.1-32.4,11.7-80.6-30.1-124.8-11.7-2.1.9-18,14.7-18.6,16.9-12.9.4-32.9-21.2-28.9-33.5,20.6-8.9,38-28.4,54.5-39.6,11.5,58.6,85.3,21.9,110.4-6.9,18.5-21.2,16.5-38.5,25.3-54.8,31.1-57.4,55.7-7.2,83.1,18.4h0Z"/>
            <path class="st16" d="M973.2,671.5c17.5,31.4-45.8,78-73.4,70-7.9-2.3-6.6-18.6-25.6-7.8-4.8-8,8.1-13.9,7.7-20.7-.5-7.5-23.6-22.9-19-42,3.2-12.9,56.6-34.7,70.4-32,6.4,1.2,37.1,27.3,39.9,32.5h0Z"/>
            <path class="st17" d="M1007.5,674.5c-8.8,16.3-6.9,33.6-25.3,54.8-25.1,28.8-99,65.5-110.4,6.9.1,0-.4-.8,2.5-2.4,19-10.8,17.7,5.5,25.6,7.8,27.6,8,90.9-38.5,73.4-70,8.4-10.4,26.8-4.2,34.3,3Z"/>
            <path class="st19" d="M908.1,1003.7c-23.6-42.4-55.5-77.5-95.7-105.1-6.4,6.4,56.7,60.9,64.7,71.5,10.3,13.8,15.2,30,23.1,44.3-67.3,22.1-178.2-180.6-52-130.9,35.7,14,97.7,81.3,59.8,120.1h0Z"/>
            <path class="st11" d="M908.1,1003.7c14.6,26.3,29.2,80.7,48,101.7,1.3,1.5.4,7.4,7.2,6.9,5.5-.6.9-92.9,11.2-108.3,1.1-1.6,7-4.3,7.8-.6-5.9,43.9-15,95-4.8,138,5.9,25,30.5,66.2,43.3,90.3,6,11.4,11.2,24.2,19.3,34.3l9.5-121.5c3.3,41.3-3.9,86.6-.8,127.6,2.4,31.7,16.8,46,29.2,75.2,10.7,25.1,20.9,51.4,28.6,77.6-3.5-1.8-7.7-3.9-11.4-5.5-11.6-25.9-42.9-122.5-60.3-138.2-1.4-1.2-6.4-.9-8.4-2.1-30.2-19.9-67.1-25.1-100.3-37.2.5-11.5,85.4,16,95,23.1,7.5-2.6,2.2-6,1.3-9.9-6.7-27.2-44-86.8-62.9-103.1-30.5-26.2-64.7-45-102.6-58.3,1.9-6.3,5.6-4.2,9.9-3.8,27.6,2,68.5,34.4,92.1,49.2.5-11.2-8.4-24.1-13-34-13.7-29.5-29.9-62.5-45.6-90.9-7.9-14.2-12.8-30.5-23.1-44.3-8-10.7-71.1-65.2-64.7-71.5,40.1,27.5,72,62.6,95.7,105.1h-.1Z"/>
            <path class="st19" d="M1048.6,1272.3c-3.1-41,4.2-86.3.8-127.6l-9.5,121.5c-8.1-10.1-13.3-22.9-19.3-34.3-.2-24-1.6-121.2,36.8-118.3,52.3,3.9,53.9,147-8.8,158.7h0Z"/>
            <path class="st19" d="M977.4,1141.6c-10.2-43.1-1.1-94.1,4.8-138-.8-3.7-6.7-1.1-7.8.6-10.3,15.4-5.8,107.7-11.2,108.3-6.7.5-5.8-5.4-7.2-6.9-7.6-28.3-22.1-124.6,25.4-123.8,70.3,1.2,19.8,129.4-4,159.9Z"/>
            <path class="st19" d="M945.8,1105.3c4.6,9.9,13.5,22.7,13,34-23.7-14.8-64.5-47.2-92.1-49.2-4.3-.3-8-2.5-9.9,3.8,37.9,13.3,72.1,32.1,102.6,58.3-30,7.9-153.2-26.1-113.9-74,26.8-32.6,78.3,7.8,100.4,27.1Z"/>
            <path class="st19" d="M1022.3,1255.3c.9,3.8,6.2,7.3-1.3,9.9-9.5-7.1-94.5-34.6-95-23.1,33.2,12.2,70.1,17.3,100.3,37.2-31,16-132.8,15.1-126.1-36.2,6.6-51.3,103.1-15.2,122.1,12.2h0Z"/>
            <path class="st4" d="M480.2,921.3s-14.2-72.5,81.1-111.8c0,0-12.2,85.4-81.1,111.8Z"/>
            <path class="st3" d="M394.6,441.5s35.6-79.3,66.1-115c30.5-35.7,134.1-115.4,220.3,7.7,86.2,123.1,74.7,244.8,37.2,480.1,0,0-43,163.9,60.5,227.5,103.5,63.7,302,229.8,323.7,295.7l66.9,99.7-812.3-29.5s-37.4-124.9-11.8-226.7c25.6-101.8,106.4-218.3,165.6-287.1,0,0,53.4-75,57.4-269,0,0,5.8-112.3-112.8-75.1l-60.8-108.3Z"/>
            <path class="st2" d="M737.4,1041.3c1.9-1.1,3.8-2.1,5.7-3,18.4-8.6,23.2-4.9,39,4.8,103.5,63.7,302,229.8,323.7,295.7,0,0,66.9,99.7,66.9,99.7-33.6-1.2-67.3-2.4-100.9-3.7-89.8-3.3-179.7-6.5-269.5-9.8-50.3-1.8-100.7-3.7-151-5.5-12-.4-25.9,1-37.7-1.4-15.5-3.2-13.8-6-13.7-23.2.1-29.6,6.2-58.9,12.2-87.8,17.5-84.7,36.9-173.4,93.8-238.5,9.1-10.4,19.5-20.4,31.6-27.4Z"/>
            <path class="st5" d="M394.3,441.9s35.6-79.3,66.1-115c30.5-35.7,134.1-115.4,220.3,7.7,20.3,29,36.7,60.6,47.6,94.3,18.9,58.7,20.1,121.1,15.9,182.1-2.7,39-7.6,77.9-13,116.6-2.4,16.9-1,34.5-14.8,45.4-15.9,12.5-37,23-56.1,29.6-21.9,7.5-46.5,9.4-67.8.4s-26.8-17.8-32.9-32.2c-6.2-14.5-1.4-26.1.6-41,4.7-34.6,7.1-69.5,7.8-104.5,0,0,5.8-112.3-112.8-75.1l-60.8-108.3Z"/>
            <path class="st1" d="M705.5,1241.2s41.9,142.4,221.3,203.9"/>
            <path class="st6" d="M487.3,956.5s12.6,123.5,106.8,135.7c0,0,49.1-45-106.8-135.7Z"/>
            <path class="st6" d="M488.8,946.8s-99.2-9.4-118.4,94.3c0,0,98.4,16.6,118.4-94.3Z"/>
            <path d="M546.4,431.2c15.4,0,27.8-13.6,27.8-30.3s-12.5-30.3-27.8-30.3-27.8,13.6-27.8,30.3,12.5,30.3,27.8,30.3Z"/>
            <path class="st18" d="M603.5,487.7c12.4,0,22.4-9.3,22.4-20.9s-10-20.9-22.4-20.9-22.4,9.4-22.4,20.9,10,20.9,22.4,20.9Z"/>
            <path class="st6" d="M479.2,930s-4.9-32.8,56.7-45.7c61.6-12.9,166.1-44.3,183.3-74.8,0,0-7,149.7,32.1,209.6,0,0-46.9,17.7-84.5,2.9-37.6-14.9-154.7-103.6-187.6-92.1Z"/>
            <path class="st21" d="M487.9,983.1c15.8,0,28.6-15.6,28.6-34.9s-12.8-34.9-28.6-34.9-28.6,15.6-28.6,34.9,12.8,34.9,28.6,34.9Z"/>
            <path class="st7" d="M393.2,438.7s-68.6,90.2-76.7,117.2c-8.1,27-48.4,74.3,30.4,70.3,0,0,87.6-29.2,130.8-77.9,0,0,25.6-127.9-84.4-109.6Z"/>
            <g class="st14">
              <g>
                <path class="st19" d="M130.7,1289.9c1.2,1.3,7,8.7,9.1,11.3,10.5,13,16.5,30.1,27.2,43.1,2.4,19.3,18,39.8,13.6,61.2-16.6-.5-33.3.6-49.9,0l-4.5-53.3c-15.2-13.4-12.7,30-17,32.9-35.6-22.6-26.7-48.2-36.3-83.9-11.5,5-1.9,39.3-6.8,43.1l-48.7-44.2c-7.5,27.5,23.5,50.7,40.8,71.4,60,34,1.9,26.9,11.3,27.2v4.5c-88.4-8.1-66.8-119.7-68-185.9,42.5,10.5,99.4,40.5,129.2,72.6Z"/>
                <path class="st19" d="M328.2,1407.8c-36.2-.5-72.6.8-108.8,0,18.9-40,62.6-30.2,97.5-44.2-1.8-13.7-52.5-7.2-52.1-11.3l89.6-98.6-97.5,86.2c-3.2-1,22.6-57.6,9.1-65.7-18.8,46.8-33.1,88.5-72.6,122.4,3.7-90.6-14.7-44.4-17,9.1-8.3-.2-16.7.2-24.9,0,.1-141.6,141.8-203,261.8-224.4-3.1,81.5-37.6,161.3-85,226.7Z"/>
                <path class="st9" d="M219.4,1407.8c-14.4-.4-28.6-1.9-43.1-2.3,2.3-53.5,20.7-99.7,17-9.1,39.5-33.9,53.8-75.6,72.6-122.4,13.5,8.2-12.3,64.7-9.1,65.7l97.5-86.2-89.6,98.6c-.3,4.2,50.4-2.4,52.1,11.3-34.9,14-78.6,4.2-97.5,44.2Z"/>
                <path class="st9" d="M130.7,1405.5c-19.9-.7-41.6-.5-61.2-2.2v-4.6c1.1,0,6.4-3.1,9.1-3.4.7-1.8-17.6-20.4-20.4-23.8-17.3-20.7-48.4-43.9-40.8-71.4l48.7,44.2c4.9-3.7-4.7-38.1,6.8-43.1,9.6,35.7.6,61.2,36.3,83.9,4.3-2.9,1.8-46.3,17-32.9l4.5,53.3h0Z"/>
                <path class="st9" d="M164.7,1165.2c3.8,39.2.8,78.7,2.3,117.9.7,19.1-2.3,43.2,0,61.2-10.7-13-16.7-30.1-27.2-43.1v-138.3c7-.1,16.1-1.9,23.8-2.3,1.8,0,.9,4.5,1.1,4.5h0Z"/>
                <path class="st20" d="M164.7,1165.2c-.2,0,.7-4.6-1.1-4.5-7.7.3-16.8,2.1-23.8,2.2-8,.1-16.1,4.2-21.5,4.5-47.2,2.5-81.2-16.3-114.5-47.6.6-23.1-4.9-44.2,0-68,5.4-26,33.9-52.2,36.3-60.1,2.4-7.9-3.7-34.8-2.3-47.6,3.3-28.3,36-68.9,64.6-73.6,67.9-11.4,99.9,60.5,99.8,117.9,24.6-12.5,54.5-20.2,80.5-7.9-4.9,57.7,54.1,116.3-10.2,162.1-30.7,21.8-72,20.8-107.7,22.7Z"/>
                <path class="st12" d="M238.4,1054.1c16.1,33.4-52.5,99.1-77.1,104.3-14.7,3.1-57.2-7.7-70.3-15.9-11-6.9-61.7-77.4-46.5-71.4,3.7,1.5,30.2,51.8,48.7,62.3,4.6,2.6,62.4,18.7,65.7,18.1,10.9-1.6,89.2-73.8,79.4-97.5h0Z"/>
                <path class="st16" d="M138.7,972.5c31.3-5,49,21.6,38.5,49.9-7.5-10.2-58.7-16.4-60.1-19.3-4.6-10.1,9.5-28.7,21.5-30.6Z"/>
              </g>
            </g>
            <path class="st19" d="M190.7,345.2c25.5-41.3,59-74.9,100.4-100.6,6.1,6.7-59.4,58.2-67.9,68.5-11,13.3-16.6,29.3-25.1,43.2,66.2,25.1,186.2-172.3,57.9-128.4-36.3,12.4-101.3,76.8-65.3,117.3h0Z"/>
            <path class="st11" d="M190.7,345.2c-15.8,25.6-32.9,79.2-52.6,99.4-1.4,1.4-.8,7.4-7.5,6.6-5.4-.9,3.3-92.9-6.2-108.7-1-1.7-6.8-4.6-7.8-.9,3.9,44.2,10.6,95.5-1.5,138.1-7,24.7-33.5,64.8-47.3,88.3-6.5,11.1-12.3,23.7-20.8,33.4l-3.9-121.8c-5.2,41.1,0,86.7-5,127.5-3.9,31.6-18.9,45.1-32.6,73.8-11.8,24.6-93.3,50.4-102.1,76.2,3.6-1.6,77.9-3.6,81.6-5,12.8-25.4,48.4-120.4,66.6-135.3,1.4-1.1,6.4-.6,8.5-1.8,31.1-18.5,68.2-22,101.9-32.6,0-11.5-86.1,12.1-96,18.7-7.4-2.9-1.9-6.1-.8-10,7.9-26.8,48-84.7,67.6-100.1,31.7-24.8,66.7-42,105.1-53.5-1.6-6.4-5.4-4.4-9.8-4.3-27.7.8-70,31.2-94.3,44.9,0-11.2,9.5-23.7,14.5-33.4,15-28.9,32.7-61.1,49.7-88.8,8.5-13.9,14.2-29.9,25.1-43.2,8.5-10.3,74-61.8,67.9-68.5-41.4,25.7-74.8,59.3-100.4,100.6h.1Z"/>
            <path class="st19" d="M38.1,607.1c5-40.8-.2-86.4,5-127.5l3.9,121.8c8.5-9.7,14.3-22.3,20.8-33.4,1.3-24,7.2-121-31.3-119.9-52.4,1.5-60.5,144.3,1.6,158.9h0Z"/>
            <path class="st19" d="M115.1,479.8c12.1-42.6,5.4-93.9,1.5-138.1,1-3.7,6.7-.8,7.8.9,9.6,15.8.8,107.8,6.2,108.7,6.7.8,6.1-5.2,7.5-6.6,8.9-27.9,27.8-123.5-19.7-124.8-70.2-2-25.7,128.4-3.3,160Z"/>
            <path class="st19" d="M148.3,445.1c-5,9.7-14.5,22.1-14.5,33.4,24.3-13.7,66.6-44.2,94.3-44.9,4.3-.1,8.1-2.1,9.8,4.3-38.5,11.5-73.4,28.8-105.1,53.5,29.6,9.3,154.2-19.1,117.1-68.7-25.2-33.8-78.5,4.2-101.5,22.4Z"/>
            <path class="st19" d="M65.1,591.4c-1.1,3.8-6.5,7,.8,10,9.8-6.7,95.9-30.3,96-18.7-33.7,10.6-70.8,14.1-101.9,32.6,30.3,17.4,131.9,21.2,127.7-30.4-4.3-51.6-102.3-19.9-122.5,6.6h0Z"/>
          </g>
        </g>
      </g>
    </g>
  </g>
  <path class="st23" d="M555.2,397.1c5.9,0,10.7-5.2,10.7-11.7s-4.8-11.7-10.7-11.7-10.7,5.2-10.7,11.7,4.8,11.7,10.7,11.7Z"/>
</svg>